# xmcd
#
# Track frame offsets:
#	150
#	16511
#	30396
#	46700
#	63387
#	79159
#	80203
#	99473
#	113444
#	128613
#
# Disc length: 2402 seconds
#
# Revision: 1
# Processed by: cddbd v1.5.2PL0 Copyright (c) Steve Scherf et al.
# Submitted via: audiograbber 1.83.01
#
DISCID=6709600a
DTITLE=Psykopompos - Alva
DYEAR=2005
DGENRE=
TTITLE0=When you deny me
TTITLE1=Rising star
TTITLE2=Love
TTITLE3=Illuminate
TTITLE4=These words I bleed
TTITLE5=Blink of an eye
TTITLE6=Breathe
TTITLE7=Fly
TTITLE8=The end
TTITLE9=You are my world
EXTD=
EXTT0=
EXTT1=
EXTT2=
EXTT3=
EXTT4=
EXTT5=
EXTT6=
EXTT7=
EXTT8=
EXTT9=
PLAYORDER=
